<svg width="227" height="35" viewBox="0 0 227 35" fill="none" xmlns="http://www.w3.org/2000/svg">
<path d="M4.21788 20.914C2.91245 20.6932 2.05717 20.4283 1.50799 19.9868C0.967818 19.5673 0.450147 18.7285 0.450147 18.287C0.447896 18.0662 0.42764 18.0662 0.225073 18.287C-2.09952e-07 18.5077 0 18.5077 0 18.0662C0 17.8454 0 17.713 0 17.713C0 17.7218 5.63134 17.7218 12.3858 17.713L24.6681 17.6975L25.4783 16.9028V15.0264C25.4783 13.2383 25.4626 13.1279 25.1407 12.7702L24.8031 12.395H14.6388C4.50598 12.395 4.47221 12.395 3.54266 12.0197C2.37228 11.6223 1.62953 10.96 1.33694 9.98872C1.04434 9.03946 0.931806 6.29325 1.08936 4.73471C1.31443 3.34394 1.517 2.63752 2.16971 2.05252C3.43012 0.904584 3.99281 0.860424 15.395 0.860424C24.9494 0.862632 26.0343 0.86043 27.4005 1.34609C28.6609 1.74346 29.9776 3.04592 29.7728 3.67066V3.95764H6.94352L6.60591 4.28878C6.29081 4.59784 6.2683 4.68614 6.2683 6.40804C6.27055 7.95334 6.2683 8.24032 6.53839 8.5273L6.80848 8.85845H16.7635C25.4176 8.85845 26.8288 8.85844 27.5783 9.1675C29.1988 9.58694 29.829 10.0505 30.3714 11.1985C30.664 11.8387 30.6866 12.0153 30.6866 14.8829C30.6866 18.4349 30.6866 18.9426 29.6062 19.8168C28.931 20.4128 28.1207 20.7219 26.6465 20.9206C25.3861 21.1413 5.16544 21.1413 4.02432 20.9118L4.21788 20.914ZM40.0609 20.914C40.0609 20.914 40.0609 16.4392 40.0609 11.0793V1.33505L40.376 1.04807L40.6911 0.739011H66.3697L67.2925 1.04807C68.4629 1.44543 69.2057 2.08563 69.5433 2.90243C69.7683 3.45432 69.7909 3.96206 69.7909 6.75684V9.97547L69.4307 10.704C68.8005 11.9402 67.6301 12.4921 65.1881 12.7128C64.3328 12.7128 59.8223 12.9336 55.1498 12.9336L46.651 12.9358L45.9308 13.7747V20.9956H43.0791C41.5036 20.9956 40.1914 20.9956 40.1419 20.9956L40.0609 20.914ZM62.9104 9.55161C63.8106 9.15425 63.9682 8.77897 63.9682 6.76346C63.9682 5.24024 63.9457 5.01949 63.6756 4.68835C63.0679 3.89363 63.3155 3.9157 54.5759 3.87155H46.5588L46.1986 4.29099C45.8385 4.71043 45.8385 4.7325 45.8385 6.85618V8.99752L46.7838 9.92469H54.5511C61.7895 9.92469 62.3567 9.9247 62.9014 9.63771L62.9104 9.55161ZM92.5323 19.1589C91.5195 17.7903 91.0018 17.1942 90.4841 16.8785L89.8089 16.437H81.0085C76.1064 16.437 72.2307 16.437 72.2577 16.2163C72.2802 16.2163 72.8654 15.4215 73.5406 14.6047L74.7785 13.1257L80.806 13.119C86.6714 13.1146 86.8424 13.1058 87.0855 12.8321C87.5807 12.2802 87.4456 11.9711 84.756 8.13877C83.338 6.10781 82.1744 4.34397 82.1699 4.21593C82.1609 3.95103 84.8145 0.64409 85.0328 0.641883C85.0328 0.641883 89.5951 6.42791 98.5328 18.2207L100.558 20.8786H93.9075L92.5346 19.0464L92.5323 19.1589ZM113.19 20.925C111.434 20.7042 110.198 20.2848 109.676 19.7108C109.451 19.4901 109.294 19.1589 109.136 18.7837L108.821 18.1214V3.63754L109.226 2.84283C109.721 1.8715 110.351 1.40791 111.616 1.07677C112.427 0.856018 113.417 0.833939 123.788 0.833939H135.069L136.059 1.143C136.645 1.36375 137.252 1.62866 137.545 1.87149C138.062 2.33508 138.535 3.17395 138.535 3.68169L138.54 3.99076H127.047C117.009 3.99076 115.501 3.99076 115.148 4.21151L114.743 4.43227V17.0088L115.598 17.7152H138.414V18.0905C138.414 18.7748 137.761 19.8345 137.086 20.2097C135.735 20.9824 135.87 20.9603 124.261 21.0045C118.396 21.0199 113.408 21.0089 113.183 21.0045L113.19 20.925ZM148.218 20.9206C148.218 20.9206 148.218 17.883 148.218 14.2802V7.73258H167.088V10.8232H154.972L154.252 11.5737V17.2075L155.017 17.9139H176.334V20.9162H162.334C154.639 20.9162 148.297 20.9162 148.247 20.9162L148.218 20.9206ZM148.126 0.756674H176.57V4.11217H148.126V0.756674ZM4.35068 21.0133C2.75265 20.7705 2.02341 20.5276 1.33469 19.9978C0.884539 19.6446 0.209318 18.4746 0.141796 17.9227V17.5916H12.3813C19.111 17.5739 24.7559 17.5916 24.9247 17.5916C25.4873 17.3708 25.6449 16.8851 25.6449 14.9844C25.6449 13.4171 25.6224 13.1963 25.3748 12.9755C25.1497 12.7548 24.9697 12.6665 24.7896 12.6444C24.5645 12.6444 20.0473 12.6444 14.632 12.6444H4.78732L3.86452 12.3354C2.6041 11.9159 1.83885 11.1874 1.49449 10.0969C1.17938 9.08141 1.13437 4.88703 1.49449 3.76338C1.87711 2.24016 2.88995 1.47413 5.00789 1.1143C6.67343 0.827318 24.9404 0.827313 26.5474 1.10326C27.8754 1.32402 28.6856 1.67723 29.4486 2.38365C30.1914 3.04592 30.4615 3.59781 30.2364 3.99517L30.0113 4.28216H18.6001C7.36891 4.28216 7.1821 4.28657 6.91201 4.54706C6.66443 4.7899 6.64192 4.98858 6.64192 6.53388C6.64192 8.07918 6.66443 8.29993 6.93452 8.60899L7.22712 8.96219L16.14 8.96441C21.0421 8.96661 25.6336 8.9644 26.3494 9.18516C28.2175 9.40591 29.3384 9.73705 30.0203 10.3993C30.9431 11.3044 31.0782 11.8563 31.0782 15.2869C31.0782 17.8234 31.0782 18.3377 30.8306 18.9581C30.3354 20.3488 29.1876 21.0553 26.9548 21.4085C26.1896 21.6292 22.971 21.6292 15.9082 21.6292C6.96603 21.6292 5.76864 21.6314 4.4227 21.4085L4.35068 21.0133ZM39.8358 11.2801L39.829 1.28428L40.5493 0.622009H66.2752L67.2205 0.931067C68.3684 1.30635 69.2462 2.05693 69.5928 2.93995C69.8179 3.49185 69.8404 3.99959 69.8404 6.85177C69.8404 10.0262 69.8291 10.1587 69.5253 10.7746C68.8726 12.055 67.6121 12.6731 65.1161 12.8939C64.3283 12.8939 59.8336 13.1146 55.1206 13.1146L46.552 13.119L46.2594 13.4723C45.9893 13.8255 45.9668 13.9358 46.0118 17.5629V21.2959H39.7953L39.7908 11.2978L39.8358 11.2801ZM62.8271 9.44787C63.7049 9.0505 63.8174 8.71936 63.8174 6.79437C63.8174 4.94001 63.8174 4.65303 63.0296 4.27553C62.6245 4.05478 61.9268 4.0327 54.6209 4.01062H46.6555L46.3179 4.34176C45.9803 4.67289 45.9803 4.71705 45.9803 6.81203V8.95336L46.9706 9.79224H54.6502C61.4654 9.79224 62.3837 9.79224 62.8293 9.52733L62.8271 9.44787ZM93.7387 21.1722C93.7589 21.1722 93.1535 20.223 92.3883 19.1854C91.2404 17.6181 90.8803 17.2428 90.3176 16.9403L89.6424 16.5871H80.806C75.9489 16.5871 71.9718 16.5871 71.9718 16.5871C71.9718 16.5871 72.602 15.7703 73.3673 14.8432L74.7627 13.1875H86.8897L87.1148 12.7901C87.3399 12.459 87.3399 12.3265 87.1148 12.0837C87.1148 11.8629 85.8318 10.1631 84.4454 8.18513C83.0724 6.19832 81.9381 4.50512 81.9381 4.40578C81.9381 4.40578 82.6133 3.41237 83.4686 2.39689C84.9316 0.630839 84.9991 0.564612 85.2242 0.807444C85.4492 1.0282 88.8591 5.52281 93.0072 10.9799C97.1553 16.4392 100.642 21.0111 100.75 21.1391C100.975 21.3599 100.756 21.382 97.3219 21.382C95.3412 21.382 93.7139 21.382 93.7342 21.382L93.7387 21.1722ZM114.2 21.1722C114.178 21.1722 113.615 20.9515 112.985 20.9515C110.664 20.6645 109.622 20.0905 109.01 18.766L108.695 18.0596V10.885C108.695 4.36604 108.717 3.64637 108.942 3.03046C109.235 2.16951 110 1.44102 110.923 1.08781C112.296 0.580066 113.478 0.535921 124.574 0.580072C136.266 0.580072 135.951 0.580073 137.347 1.44102C138.044 1.86046 138.765 3.03047 138.697 3.62651V3.95764H127.061C117.475 3.95764 115.382 3.95765 115.197 4.20048C114.972 4.42124 114.972 4.97312 114.972 10.5119V16.6401L115.737 17.3465H138.627V17.7218C138.627 19.245 137.412 20.3753 135.398 20.6932C134.88 20.6932 134.115 20.914 133.71 20.9802C132.989 21.2009 114.389 21.2009 114.268 20.9802L114.2 21.1722ZM148.026 14.4237L148.049 7.61779H167.133V10.885H154.873L154.603 11.194C154.356 11.481 154.333 11.7459 154.333 14.2515C154.333 16.9823 154.335 16.9933 154.671 17.3223L155.008 17.6534H165.53C171.319 17.6534 176.156 17.6534 176.278 17.6534C176.503 17.6534 176.503 17.9845 176.503 19.3974L176.483 21.053H148.076V14.2449L148.026 14.4237ZM148.049 4.02829C148.049 4.02829 148.049 3.12319 148.026 2.26224V0.650715H176.676V4.27111H162.379C150.732 4.27111 148.074 4.27112 148.017 4.05036L148.049 4.02829ZM4.44521 21.095C2.37453 20.8301 1.15013 20.212 0.569437 19.1523C0.0292602 18.181 -0.0382638 17.6733 0.299347 17.4966C0.52442 17.4966 4.38443 17.2759 12.8134 17.2759H25.053L25.278 16.9889C25.5706 16.5695 25.5931 13.1786 25.296 12.7857C25.071 12.5429 24.8009 12.5208 15.0754 12.4546C4.37994 12.4546 4.32592 12.4546 2.99573 11.6819C2.2755 11.3287 1.91538 10.9314 1.53275 10.1146C1.24016 9.47436 1.21765 9.29775 1.21765 6.41688V3.3903L1.62278 2.59558C2.16296 1.5801 2.92821 1.02821 4.39119 0.697073C5.359 0.476317 6.28181 0.454237 15.7056 0.454237C25.0057 0.454237 26.0433 0.454241 26.8828 0.697073C28.0307 0.984057 28.8184 1.38142 29.4239 1.91123C30.1891 2.61765 30.4817 3.4786 30.0991 3.85389C29.874 4.07464 27.2362 4.07465 18.6046 4.07465C11.0556 4.07465 7.1866 4.07464 7.00879 4.2954C6.76121 4.51615 6.73871 4.60446 6.73871 6.28221C6.73871 8.00411 6.76121 8.15864 7.0313 8.3794C7.30139 8.62223 7.72903 8.64431 17.3892 8.71054C25.924 8.71054 27.5648 8.71054 28.1432 8.99752C29.5162 9.41696 30.2589 9.96885 30.7001 10.9622C31.1952 12.0219 31.3528 14.9646 31.0827 17.3576C30.8351 19.4989 30.0924 20.3775 27.9834 20.9537C26.9256 21.2407 26.7905 21.2407 16.1153 21.2627C10.1733 21.276 4.92461 21.2627 4.44971 21.2627L4.44521 21.095ZM39.8335 11.1212V1.00613L40.3062 0.719148C40.7563 0.432164 40.8464 0.432163 52.6492 0.432163C60.0542 0.432163 64.9608 0.432158 65.6675 0.652915C67.153 0.873671 68.1973 1.22689 68.9176 1.88916C69.8854 2.75011 69.9529 3.14747 69.9079 7.12992V10.534L69.5028 11.1963C69.0301 11.9468 68.0398 12.6091 66.9977 12.874C66.525 13.0948 63.6824 13.0948 56.5655 13.1168C47.1844 13.1168 46.7568 13.1168 46.4822 13.448C46.2121 13.6908 46.1896 13.8012 46.1896 17.5055V21.3069H39.8988V11.1918L39.8335 11.1212ZM62.458 9.42137C62.7956 9.42137 63.2007 9.13439 63.3808 8.93571C63.6734 8.62665 63.6959 8.45005 63.7409 7.0372C63.7409 5.11662 63.5158 4.5868 62.8406 4.23801C62.3679 4.01725 61.6027 4.01725 54.4836 4.01725H46.6443L46.3742 4.3263C46.1491 4.61329 46.1041 4.8782 46.1041 6.78113V8.92246L46.8243 9.58473H54.3328C59.3317 9.58473 62.0371 9.58473 62.4354 9.36397L62.458 9.42137ZM92.4085 19.34C91.4182 17.9713 90.878 17.3531 90.4279 17.0684L89.8202 16.6931L80.9027 16.6909C75.2782 16.6887 71.9606 16.6909 71.9088 16.4701C71.9088 16.2494 74.047 13.565 74.6052 13.0815C74.8528 12.8608 75.3704 12.8387 80.8712 12.8387C86.8267 12.8387 86.8717 12.8365 87.0247 12.5517C87.0247 12.3309 87.2498 12.1764 87.0247 12.044C87.0247 11.8232 85.7868 10.1455 84.3464 8.07255C82.9059 6.01951 81.7288 4.25346 81.7288 4.16958C81.7288 3.92674 84.7493 0.357099 84.9451 0.357099C85.1701 0.357099 100.356 20.2407 100.79 20.978C100.79 21.1987 100.138 21.1987 97.2881 21.1987L93.6914 21.1921L92.3185 19.3157L92.4085 19.34ZM112.539 21.0177C110.423 20.6866 109.413 20.0464 108.852 18.6843C108.56 17.9558 108.537 17.8013 108.492 11.4567C108.492 4.69938 108.513 3.54262 109.01 2.59337C109.618 1.44543 110.901 0.783163 113.023 0.584482C114.711 0.363726 132.94 0.363721 134.493 0.588893C135.888 0.809649 137.018 1.09663 137.662 1.5823C138.179 1.97966 138.832 3.14968 138.832 3.70157V4.07685H127.34C115.145 4.07685 115.226 4.07465 114.986 4.69497C114.986 4.91573 114.986 7.55156 114.986 10.779V16.6423L115.751 17.3487H127.203C140.09 17.3487 138.97 17.3487 138.661 18.4084C138.256 19.9537 137.176 20.702 134.88 21.0376C132.967 21.3246 114.454 21.3025 112.622 21.0288L112.539 21.0177ZM148.022 14.3531V7.48092H167.167V10.9026H161.099C155.164 10.9026 155.02 10.9071 154.666 11.1896L154.306 11.4766V17.203L154.666 17.49C155.026 17.7549 155.116 17.777 165.656 17.777C175.53 17.777 176.298 17.7925 176.381 17.9978C176.381 18.2185 176.381 18.9029 176.381 19.7417L176.359 21.265H147.808V14.3906L148.022 14.3531ZM148.049 4.14749C148.049 4.14749 148.049 3.19824 148.026 2.22691V0.482933H176.744V4.2358H162.415C150.718 4.2358 148.076 4.238 148.02 4.01504L148.049 4.14749ZM4.1211 21.0729C1.9829 20.7859 0.672969 19.925 0.24983 18.4945C0.0247566 17.8763 0.0247566 17.6777 0.24983 17.5231C0.474904 17.3024 2.11794 17.3024 12.6942 17.3024H24.9742L25.2668 16.9492C25.5144 16.6401 25.5594 16.4194 25.5594 14.8961C25.5594 13.4171 25.5594 13.1522 25.2893 12.8652L25.0192 12.5561H14.9224C4.47672 12.5561 4.25614 12.5561 3.13753 11.8938C1.47198 11.055 0.954312 9.52733 1.11186 5.7833C1.11186 3.3616 1.42697 2.64193 2.30475 1.80747C3.02499 1.12313 3.72272 0.836145 5.25322 0.615388C5.88343 0.615388 9.65341 0.394632 16.3989 0.615388C26.5362 0.615388 26.5835 0.615385 27.4905 0.94652C28.7059 1.34388 29.6287 1.98408 30.1149 2.75673C30.475 3.3307 30.4975 3.419 30.3399 3.79429L30.1149 4.19165H18.7464C8.67434 4.19165 7.33965 4.19164 7.07182 4.4124C6.77922 4.63316 6.75671 4.72146 6.75671 6.33298C6.75671 7.59129 6.75671 8.12111 6.98179 8.29772C7.20686 8.54055 7.47695 8.56262 17.1326 8.62885C27.6863 8.62885 27.9542 8.62885 29.2528 9.37942C30.8509 10.1741 31.256 11.3442 31.256 15.0816C31.256 18.6931 30.8509 19.819 29.2078 20.638C27.9249 21.2782 27.9249 21.2782 16.149 21.3224C10.0585 21.3378 4.66353 21.3224 4.15936 21.3224L4.1211 21.0729ZM39.6985 11.1742L39.694 1.12975L40.5493 0.423331H66.2932L67.216 0.73239C68.4089 1.12975 69.1967 1.7258 69.6401 2.56467C69.9777 3.22694 70.0002 3.24901 70.0002 6.58906C70.0002 10.3287 70.0002 10.6333 69.1449 11.5119C68.5597 12.1301 67.9295 12.4833 66.7636 12.7923C65.9984 13.0131 64.738 13.0131 56.3314 13.0793C46.8131 13.0793 46.7591 13.0793 46.453 13.4104C46.1379 13.6974 46.1379 13.7195 46.1379 17.426V21.159H39.7188L39.712 11.1124L39.6985 11.1742ZM62.8248 9.2536C63.0949 9.03284 63.3875 8.90038 63.4775 8.76793C63.4775 8.54717 63.7026 7.75245 63.7026 6.75904C63.7026 4.77223 63.4775 4.4411 62.6448 4.18944C62.3297 4.18944 59.3024 3.96868 54.4611 3.96868L46.7793 3.96648L46.4867 4.31968C46.2166 4.65082 46.1941 4.8495 46.1941 6.67737V8.68625L47.0044 9.48097H54.6974C61.5261 9.48097 62.4467 9.48097 62.8924 9.21606L62.8248 9.2536ZM92.386 19.3665C91.4182 18.0419 90.833 17.4017 90.3603 17.086L89.7076 16.6445H80.7654C73.6149 16.6445 71.8278 16.6445 71.8278 16.4238C71.8278 16.203 73.6284 13.9932 74.3936 13.2096L74.7537 12.8343H80.7159C85.1724 12.8343 86.7232 12.8343 86.8447 12.6135C87.2273 12.2382 86.8447 11.7305 84.3464 7.98866C82.2757 5.01948 81.7108 4.11217 81.8098 3.94219C82.1249 3.3903 84.8663 0.235687 85.0306 0.235687C85.0306 0.235687 88.7353 4.85171 93.0342 10.4943C97.3331 16.1368 100.914 20.8301 100.988 20.9228C100.988 21.1435 100.358 21.1435 97.4322 21.1435H93.741L92.3905 19.2892L92.386 19.3665ZM112.598 21.0663C110.129 20.7572 108.954 19.808 108.612 17.883C108.386 17.2648 108.386 14.9204 108.386 10.2051V3.4212L108.792 2.62649C109.084 2.05252 109.377 1.72138 109.872 1.39024C111.29 0.44099 111.763 0.418911 123.633 0.418911C134.794 0.423326 135.512 0.418915 136.829 1.08118C137.167 1.30194 137.662 1.611 137.932 1.92006C138.495 2.56026 138.9 3.70819 138.675 3.9731C138.45 4.19385 136.469 4.19385 126.939 4.19385C115.886 4.19385 115.341 4.20489 115.125 4.43669C114.9 4.65744 114.9 5.29764 114.9 10.7305V16.7792L115.26 17.0662C115.62 17.3311 115.688 17.3532 127.09 17.3532H138.558L138.555 17.7947C138.555 18.5673 138.263 19.2517 137.723 19.8477C137.047 20.5541 136.17 20.9073 134.578 21.106C133.228 21.3268 113.779 21.3268 112.472 21.1016L112.598 21.0663ZM147.891 14.3376L147.914 7.46546H157.547C165.159 7.46546 167.198 7.46768 167.286 7.68623C167.511 7.92906 167.511 10.5781 167.286 10.8806C167.061 11.1234 166.926 11.1455 161.09 11.1455H155.033L154.74 11.4545C154.448 11.7636 154.448 11.874 154.448 14.448C154.448 17.0816 154.455 17.139 154.763 17.4238L155.078 17.7108H165.672C173.732 17.7108 176.307 17.7108 176.433 17.9315C176.433 17.9315 176.658 18.638 176.658 19.7417V21.3974H147.948V14.5231L147.891 14.3376ZM147.914 4.13646C147.914 4.13646 147.914 3.18721 147.891 2.21588V0.471901H176.744V4.22475H162.346C150.595 4.22475 147.939 4.22697 147.882 4.004L147.914 4.13646ZM4.1211 21.0619C1.9829 20.7749 0.672969 19.9139 0.24983 18.4834C0.0247566 17.8653 0.0247566 17.6666 0.24983 17.5121C0.474904 17.2913 2.11794 17.2913 12.6942 17.2913H24.9742L25.2668 16.9381C25.5144 16.6291 25.5594 16.4083 25.5594 14.8851C25.5594 13.406 25.5594 13.1411 25.2893 12.8541L25.0192 12.5451H14.9224C4.47672 12.5451 4.25614 12.5451 3.13753 11.8828C1.47198 11.0439 0.954312 9.5163 1.11186 5.77227C1.11186 3.35057 1.42697 2.6309 2.30475 1.79644C3.02499 1.11209 3.72272 0.825103 5.25322 0.604346C5.88343 0.604346 9.65341 0.383589 16.3989 0.604346C26.5362 0.604346 26.5835 0.604353 27.4905 0.935488C28.7059 1.33285 29.6287 1.97304 30.1149 2.74569C30.475 3.31965 30.4975 3.40796 30.3399 3.78324L30.1149 4.18061H18.7464C8.67434 4.18061 7.33965 4.18061 7.07182 4.40137C6.77922 4.62212 6.75671 4.71043 6.75671 6.32195C6.75671 7.58026 6.75671 8.11007 6.98179 8.28668C7.20686 8.52951 7.47695 8.55159 17.1326 8.61782C27.6863 8.61782 27.9542 8.61782 29.2528 9.36839C30.8509 10.1631 31.256 11.3331 31.256 15.0705C31.256 18.6821 30.8509 19.808 29.2078 20.627C27.9249 21.2672 27.9249 21.2672 16.149 21.3113C10.0585 21.3268 4.66353 21.3113 4.15936 21.3113L4.1211 21.0619ZM39.6985 11.1631L39.694 1.11871L40.5493 0.412289H66.2932L67.216 0.721347C68.4089 1.11871 69.1967 1.71476 69.6401 2.55363C69.9777 3.2159 70.0002 3.23798 70.0002 6.57803C70.0002 10.3176 70.0002 10.6223 69.1449 11.5009C68.5597 12.119 67.9295 12.4722 66.7636 12.7813C65.9984 13.002 64.738 13.002 56.3314 13.0683C46.8131 13.0683 46.7591 13.0683 46.453 13.3994C46.1379 13.6864 46.1379 13.7085 46.1379 17.415V21.148H39.7188L39.712 11.1013L39.6985 11.1631ZM62.8248 9.24256C63.0949 9.0218 63.3875 8.88935 63.4775 8.7569C63.4775 8.53614 63.7026 7.74141 63.7026 6.74801C63.7026 4.7612 63.4775 4.43006 62.6448 4.1784C62.3297 4.1784 59.3024 3.95764 54.4611 3.95764L46.7793 3.95543L46.4867 4.30865C46.2166 4.63979 46.1941 4.83846 46.1941 6.66632V8.67521L47.0044 9.46994H54.6974C61.5261 9.46994 62.4467 9.46994 62.8924 9.20503L62.8248 9.24256ZM92.386 19.3554C91.4182 18.0309 90.833 17.3907 90.3603 17.075L89.7076 16.6335H80.7654C73.6149 16.6335 71.8278 16.6335 71.8278 16.4127C71.8278 16.192 73.6284 13.9822 74.3936 13.1985L74.7537 12.8232H80.7159C85.1724 12.8232 86.7232 12.8232 86.8447 12.6025C87.2273 12.2272 86.8447 11.7194 84.3464 7.97762C82.2757 5.00844 81.7108 4.10113 81.8098 3.93115C82.1249 3.37926 84.8663 0.224645 85.0306 0.224645C85.0306 0.224645 88.7353 4.84067 93.0342 10.4832C97.3331 16.1257 100.914 20.819 100.988 20.9118C100.988 21.1325 100.358 21.1325 97.4322 21.1325H93.741L92.3905 19.2781L92.386 19.3554ZM112.598 21.0552C110.129 20.7462 108.954 19.7969 108.612 17.8719C108.386 17.2538 108.386 14.9094 108.386 10.194V3.41017L108.792 2.61544C109.084 2.04148 109.377 1.71035 109.872 1.37921C111.29 0.429958 111.763 0.407879 123.633 0.407879C134.794 0.412294 135.512 0.407873 136.829 1.07014C137.167 1.2909 137.662 1.59996 137.932 1.90902C138.495 2.54922 138.9 3.69715 138.675 3.96205C138.45 4.18281 136.469 4.18282 126.939 4.18282C115.886 4.18282 115.341 4.19386 115.125 4.42565C114.9 4.64641 114.9 5.2866 114.9 10.7194V16.7681L115.26 17.0551C115.62 17.32 115.688 17.3421 127.09 17.3421H138.558L138.555 17.7836C138.555 18.5563 138.263 19.2406 137.723 19.8367C137.047 20.5431 136.17 20.8963 134.578 21.095C133.228 21.3157 113.779 21.3157 112.472 21.0906L112.598 21.0552ZM147.891 14.3266L147.914 7.45443H157.547C165.159 7.45443 167.198 7.45663 167.286 7.67518C167.511 7.91801 167.511 10.5671 167.286 10.8695C167.061 11.1124 166.926 11.1344 161.09 11.1344H155.033L154.74 11.4435C154.448 11.7526 154.448 11.8629 154.448 14.437C154.448 17.0706 154.455 17.128 154.763 17.4128L155.078 17.6997H165.672C173.732 17.6997 176.307 17.6997 176.433 17.9205C176.433 17.9205 176.658 18.6269 176.658 19.7307V21.3864H147.948V14.512L147.891 14.3266ZM147.914 4.12542C147.914 4.12542 147.914 3.17617 147.891 2.20484V0.460859H176.744V4.21372H162.346C150.595 4.21372 147.939 4.21593 147.882 3.99296L147.914 4.12542ZM4.00856 21.0641C1.75332 20.7771 0.571688 19.9161 0.166555 18.3267C-0.0585183 17.7086 -0.0585186 17.6644 0.391629 17.4216C0.684225 17.1788 1.26942 17.1788 12.9192 17.1788C24.8594 17.1788 25.1407 17.1721 25.278 16.9138C25.278 16.6931 25.5031 15.8101 25.5031 14.7725C25.5031 13.0948 25.4806 12.874 25.2555 12.7636C25.0304 12.7636 21.1502 12.5429 15.1722 12.5429C4.26065 12.5429 4.17962 12.5429 2.84268 11.5936C1.44722 10.6664 1.22215 9.98209 1.22215 6.40804C1.22215 3.24239 1.44722 2.57792 2.23498 1.7258C2.86519 1.10768 3.47289 0.820696 4.7468 0.533712C5.62459 0.312956 6.90751 0.312952 15.7844 0.312952C25.089 0.308536 25.9127 0.3262 26.9256 0.555786C28.276 0.864846 29.1538 1.32843 29.8695 2.079C30.4772 2.74127 30.6573 3.20486 30.4322 3.69052L30.2071 4.02167H18.931C11.9379 4.02167 7.52421 4.02166 7.30589 4.24242L6.94577 4.46318V6.31753C6.94577 7.95113 6.94577 8.21604 7.19336 8.39265C7.41843 8.61341 8.27371 8.6134 16.7545 8.6134C22.6582 8.6134 26.4529 8.6134 27.1259 8.83416C29.1741 9.12114 30.3129 9.78341 30.9251 11.0925C31.1727 11.6444 31.2177 11.9976 31.2627 14.6158C31.2852 16.4701 31.2515 17.7925 31.2627 18.2693C30.8801 20.0354 29.5522 21.042 27.2272 21.2937C25.8092 21.5144 5.3545 21.5144 4.18637 21.2959L4.00856 21.0641ZM39.6963 11.1455V1.09223L40.0114 0.805244C40.2364 0.584487 40.4615 0.474106 40.6416 0.407879C41.0467 0.187122 62.4332 0.187121 64.7627 0.4145C67.5649 0.635257 68.9288 1.20923 69.6986 2.62428C69.9687 3.13202 69.9912 3.37484 70.0362 6.4257C70.0362 10.0682 70.0362 10.6951 69.2484 11.5782C69.0233 11.8431 68.5057 12.2404 68.1006 12.417C66.6601 13.1014 66.0074 13.1455 56.0524 13.1455C47.9835 13.15 46.8513 13.1455 46.5835 13.3663C46.2909 13.587 46.2684 13.6091 46.2684 17.1788C46.2684 19.1656 46.2684 20.8764 46.2684 20.9912C46.2684 21.212 45.7732 21.212 42.9846 21.212H39.7885V11.1587L39.6963 11.1455ZM62.557 9.24697C63.4573 9.00414 63.6148 8.65093 63.6148 6.82968C63.6148 4.9974 63.6148 4.66628 62.8946 4.33073C62.4895 4.10997 61.8593 4.08789 54.6727 4.04374C47.7944 4.04374 46.8603 4.02828 46.57 4.26449C46.2549 4.48525 46.2549 4.50733 46.2549 6.68399C46.2549 8.71495 46.2774 8.91584 46.525 9.16308C46.7951 9.42799 46.9751 9.42799 54.4228 9.42799C59.2259 9.42799 62.2306 9.428 62.5502 9.20724L62.557 9.24697ZM92.7821 19.9493C92.2645 19.2649 91.6343 18.404 91.3642 18.0287C91.0491 17.6092 90.5989 17.2119 90.1938 16.9911L89.5186 16.6379H80.5989C72.611 16.6379 71.6905 16.6158 71.7625 16.4171C71.7625 16.1964 72.4602 15.4679 73.2255 14.5407L74.6209 12.863H80.6079C85.8724 12.863 86.6241 12.863 86.8132 12.6422C87.0383 12.4214 87.0383 12.3331 87.0383 12.2007C87.0383 11.9799 85.8679 10.2801 84.4229 8.22046C82.9824 6.16742 81.7805 4.37929 81.7513 4.26891C81.7513 3.98193 84.8303 0.22244 85.0981 0.273214C85.3232 0.273214 101.123 20.9405 101.123 21.1215C101.123 21.1215 99.4578 21.1215 97.4299 21.1215H93.7387L92.8159 19.8852L92.7821 19.9493ZM112.508 21.053C110.662 20.8323 109.48 20.1479 108.868 18.9338L108.553 18.2936V11.0726C108.553 2.88035 108.553 2.84724 109.498 1.80306C110.129 1.14079 110.961 0.743428 112.294 0.500596C113.644 0.235688 133.86 0.235683 135.263 0.496175C137.266 0.849386 138.452 1.73242 138.891 3.16513C139.206 4.22476 140.264 4.13646 127.299 4.13646C117.025 4.13646 115.665 4.13645 115.395 4.35721L115.103 4.57797V16.5871L115.733 17.1611H127.083C136.253 17.1611 138.481 17.1611 138.679 17.3819C138.904 17.6026 138.904 17.6247 138.679 18.309C138.409 19.6336 137.621 20.4062 136.073 20.9073C135.375 21.1281 134.52 21.1502 124.315 21.1722C118.26 21.1855 112.935 21.1546 112.485 21.1722L112.508 21.053ZM147.853 14.3442C147.853 7.72375 147.862 7.50521 148.123 7.37055C148.528 7.14979 166.879 7.14979 167.185 7.37055C167.41 7.5913 167.41 7.74583 167.41 9.20282V10.8806H161.229C155.53 10.8806 155.029 10.8806 154.803 11.1896C154.578 11.4104 154.556 11.7194 154.556 14.1698C154.556 16.6202 154.578 16.9337 154.803 17.1478C155.029 17.3686 155.704 17.3907 165.81 17.4569H176.575V21.0332H147.849V14.1963L147.853 14.3442ZM148.017 4.26229C147.792 4.04154 147.792 3.53379 147.792 2.31963C147.792 0.708104 147.815 0.531501 148.062 0.399047C148.355 0.17829 176.176 0.17829 176.573 0.399047C176.888 0.619804 176.888 4.27332 176.573 4.39474C176.573 4.39474 170.003 4.39474 162.24 4.39474C151.445 4.39474 148.087 4.39474 147.961 4.17399L148.017 4.26229ZM3.58092 21.0619C2.47806 20.8411 1.26266 20.3996 0.787757 19.7815C0.562684 19.5386 0.33761 18.9868 0.225073 18.5673C-2.09952e-07 17.9492 -2.09952e-07 17.7505 0.225073 17.4856C0.225073 17.2649 0.495162 17.1324 0.630206 17.1103C0.85528 17.1103 6.23229 17.0882 12.8134 17.1169C23.3739 17.1169 24.8099 17.1169 25.0507 16.8962C25.2983 16.6754 25.3208 16.543 25.3208 14.799C25.3208 13.2537 25.3208 12.8784 25.0957 12.7901C25.0957 12.7901 21.4653 12.5694 16.2773 12.5694C11.5395 12.5672 6.97728 12.5694 6.14226 12.3486C3.98155 12.1278 2.93721 11.8188 2.11794 11.0241C1.19514 10.119 1.01508 9.4567 0.925054 6.85839C0.69998 2.23795 1.55526 0.853802 4.61401 0.233476C6.14451 -0.0755836 25.0485 -0.0755804 26.6802 0.220233C28.0982 0.485141 29.0458 0.970809 29.8043 1.78761C30.5245 2.58233 30.682 3.02385 30.412 3.50951L30.1869 3.86272H18.6654C8.62257 3.86272 7.13033 3.86272 7.0178 4.12763C7.0178 4.12763 6.79273 5.03273 6.79273 5.89368C6.79047 7.17407 6.79272 7.50521 7.0403 7.72596C7.28789 8.01295 7.3329 8.01294 17.1934 8.05709C26.1198 8.05709 27.1867 8.0571 27.9159 8.34408C29.8065 8.8739 30.6753 9.69069 31.0827 11.2559C31.3978 12.47 31.3078 17.4613 30.8576 18.4172C30.52 19.3002 29.6647 20.117 28.6519 20.5144L27.8416 20.8235L16.0838 20.8455C9.61515 20.8566 3.91628 20.8234 3.41887 20.8455L3.58092 21.0619ZM39.6512 21.0619C39.6512 21.0619 39.6512 16.4834 39.6512 10.9954V1.01937L40.5515 0.224645L53.1354 0.226855C66.5588 0.229063 66.7208 0.237897 68.1343 0.889129C68.9446 1.26442 69.5748 1.88253 69.9349 2.63311C70.205 3.20707 70.2275 3.47198 70.2275 6.72372V10.2095L69.8674 10.8717C69.2822 11.9534 68.562 12.4391 66.9482 12.9027C66.2054 13.1235 65.1701 13.1455 56.489 13.1897C46.9121 13.1897 46.8468 13.1897 46.6083 13.5208C46.3832 13.7637 46.3607 14.161 46.3607 17.4746V21.148H43.0994C41.2988 21.148 39.802 21.148 39.7525 21.148L39.6512 21.0619ZM62.728 9.02622C62.9756 9.02622 63.2682 8.71716 63.3357 8.56263C63.3357 8.34187 63.5608 7.56922 63.5608 6.59789C63.5608 4.69938 63.5608 4.52278 62.503 4.25125C62.1654 4.25125 59.3249 4.03049 54.4296 4.03049C47.0562 4.03049 46.8671 4.03711 46.5993 4.2954C46.3517 4.53823 46.3292 4.73691 46.3292 6.48089C46.3292 8.22486 46.3292 8.44563 46.6218 8.76131L46.9144 9.11452H54.6344C60.9815 9.11452 62.4354 9.11452 62.8158 8.89376L62.728 9.02622ZM93.5361 20.9846C93.5361 20.9846 92.7709 20.0795 92.0957 19.1523C91.4204 18.2472 90.6327 17.3421 90.3401 17.1434L89.7999 16.7902H80.7047C72.4107 16.7902 71.614 16.7902 71.6297 16.5032C71.6387 16.2825 72.3049 15.4878 73.1152 14.5164L74.5782 12.7504H86.7997L86.7974 12.353C86.7974 12.044 86.1222 11.0064 84.1528 8.15643C82.6898 6.08132 81.5397 4.28657 81.5757 4.19385C81.8008 3.79649 84.846 0.215823 85.0328 0.215823C85.2579 0.215823 101.087 20.8742 101.087 21.1369C101.087 21.3577 93.8152 21.3577 93.5316 21.1369L93.5361 20.9846ZM112.089 20.9846C110.446 20.7638 109.341 20.0795 108.722 18.7726C108.407 18.1104 108.407 18.0883 108.362 11.0616C108.362 2.74127 108.362 2.75452 109.51 1.58451C110.095 1.01054 110.387 0.833938 111.22 0.56903L112.233 0.259971H135.206L136.174 0.56903C136.714 0.789786 137.389 1.03262 137.682 1.25338C138.56 1.8715 139.348 3.58677 138.965 4.03491C138.74 4.25567 137.209 4.25566 127.254 4.25566C119.555 4.25566 115.616 4.25567 115.44 4.47642C115.193 4.69718 115.17 4.82963 115.17 10.6223V16.6291L115.8 17.203H127.299C140.187 17.203 139.078 17.203 138.821 18.2185C138.416 20.0287 137.335 20.8654 135.155 21.0906C133.759 21.3113 113.487 21.3113 112.084 21.0817L112.089 20.9846ZM147.808 20.9846C147.808 20.9846 147.808 7.63104 147.799 7.33743C147.799 7.11667 148.857 7.11667 157.633 7.11667C166.393 7.11667 167.385 7.13875 167.459 7.33743C167.684 7.69064 167.459 10.481 167.459 10.757C167.234 10.9998 167.099 11.0219 161.241 11.0219C155.344 11.0219 155.152 11.0307 154.887 11.2868C154.639 11.5296 154.617 11.7283 154.617 14.1698C154.617 16.607 154.637 16.8035 154.887 17.0529C155.157 17.3178 155.337 17.3178 165.807 17.3178C174.736 17.3178 176.485 17.3178 176.615 17.5386C176.615 17.7593 176.84 18.2671 176.615 19.393V21.0486H162.247C154.347 21.0663 147.837 21.042 147.786 21.0486L147.808 20.9846ZM147.799 4.09672C147.574 3.78766 147.799 0.513846 147.822 0.317372C147.822 0.0966155 150.919 0.0966104 162.418 0.0966104H176.903V4.11438H162.388C149.242 4.11438 147.867 4.12762 147.792 3.89362L147.799 4.09672Z" fill="white"/>
<path d="M227 0C220.151 2.93805 205.763 7 191.776 35C197.021 15.75 209.805 1.75 213.302 0H227Z" fill="white"/>
<path d="M198.429 0H186.688L201.365 9.83146L204.3 5.89888L198.429 0Z" fill="white"/>
</svg>
