<svg width="162" height="25" viewBox="0 0 162 25" fill="none" xmlns="http://www.w3.org/2000/svg">
<path d="M3.01012 14.9385C2.07849 14.7809 1.46812 14.5916 1.07619 14.2763C0.690689 13.9767 0.32125 13.3775 0.32125 13.0621C0.319644 12.9044 0.305188 12.9044 0.160625 13.0621C-1.49834e-07 13.2198 0 13.2198 0 12.9044C0 12.7467 0 12.6521 0 12.6521C0 12.6584 4.01884 12.6584 8.83921 12.6521L17.6045 12.6411L18.1828 12.0734V10.7331C18.1828 9.45589 18.1715 9.37705 17.9418 9.12161L17.7009 8.85354H10.4471C3.21572 8.85354 3.19162 8.85355 2.52824 8.58548C1.69299 8.30165 1.16293 7.8286 0.954114 7.1348C0.745301 6.45676 0.664989 4.49518 0.777427 3.38194C0.938052 2.38853 1.08261 1.88395 1.54843 1.46608C2.44793 0.646131 2.84949 0.614589 10.9868 0.614589C17.8053 0.616165 18.5795 0.614593 19.5545 0.961496C20.454 1.24533 21.3937 2.17566 21.2475 2.6219V2.82689H4.95529L4.71435 3.06341C4.48948 3.28417 4.47341 3.34724 4.47341 4.57717C4.47502 5.68096 4.47342 5.88594 4.66617 6.09093L4.85892 6.32746H11.9634C18.1394 6.32746 19.1465 6.32746 19.6814 6.54822C20.8379 6.84782 21.2877 7.17895 21.6748 7.9989C21.8836 8.45618 21.8997 8.58233 21.8997 10.6306C21.8997 13.1678 21.8997 13.5304 21.1287 14.1549C20.6468 14.5806 20.0685 14.8014 19.0164 14.9433C18.1169 15.101 3.68635 15.101 2.87198 14.937L3.01012 14.9385ZM28.5897 14.9385C28.5897 14.9385 28.5897 11.7423 28.5897 7.91375V0.953609L28.8146 0.74862L29.0394 0.527865H47.3652L48.0238 0.74862C48.859 1.03245 49.3891 1.48973 49.63 2.07316C49.7906 2.46737 49.8067 2.83004 49.8067 4.82632V7.12534L49.5497 7.64569C49.0999 8.52872 48.2647 8.92292 46.5219 9.08061C45.9115 9.08061 42.6926 9.23829 39.358 9.23829L33.2928 9.23987L32.7788 9.83906V14.9969H30.7437C29.6193 14.9969 28.6829 14.9969 28.6475 14.9969L28.5897 14.9385ZM44.8964 6.82258C45.5389 6.53875 45.6513 6.27069 45.6513 4.83104C45.6513 3.74303 45.6353 3.58535 45.4425 3.34882C45.0088 2.78116 45.1855 2.79693 38.9484 2.76539H33.227L32.9699 3.06499C32.7129 3.36459 32.713 3.38036 32.713 4.89727V6.4268L33.3876 7.08907H38.9308C44.0965 7.08907 44.5012 7.08907 44.89 6.88408L44.8964 6.82258ZM66.0363 13.685C65.3135 12.7073 64.944 12.2816 64.5746 12.0561L64.0927 11.7407H57.8123C54.3138 11.7407 51.5479 11.7407 51.5671 11.583C51.5832 11.583 52.0008 11.0154 52.4827 10.432L53.3661 9.37547L57.6677 9.37075C61.8536 9.36759 61.9757 9.36129 62.1491 9.16576C62.5025 8.77155 62.4061 8.55079 60.4867 5.81341C59.4747 4.36272 58.6443 3.10284 58.6411 3.01138C58.6347 2.82216 60.5284 0.460065 60.6842 0.458488C60.6842 0.458488 63.9401 4.59137 70.3185 13.0148L71.7642 14.9133H67.0177L66.0379 13.6045L66.0363 13.685ZM80.7785 14.9464C79.5256 14.7887 78.6438 14.4891 78.2711 14.0792C78.1105 13.9215 77.998 13.685 77.8856 13.4169L77.6607 12.9439V2.59825L77.9499 2.03059C78.3032 1.33678 78.753 1.00565 79.6557 0.769125C80.2339 0.611441 80.9407 0.59567 88.3423 0.59567H96.3928L97.0996 0.816426C97.5172 0.97411 97.9509 1.16333 98.1597 1.33678C98.5292 1.66792 98.8665 2.26711 98.8665 2.62978L98.8697 2.85054H90.6682C83.5043 2.85054 82.4281 2.85054 82.1759 3.00822L81.8868 3.16591V12.1491L82.4972 12.6537H98.7797V12.9218C98.7797 13.4106 98.3139 14.1675 97.832 14.4355C96.8683 14.9874 96.9647 14.9717 88.6796 15.0032C84.4937 15.0142 80.9343 15.0063 80.7736 15.0032L80.7785 14.9464ZM105.777 14.9433C105.777 14.9433 105.777 12.7736 105.777 10.2002V5.52327H119.243V7.73084H110.597L110.083 8.26696V12.291L110.629 12.7956H125.842V14.9401H115.851C110.359 14.9401 105.833 14.9401 105.797 14.9401L105.777 14.9433ZM105.711 0.540482H126.011V2.93727H105.711V0.540482ZM3.10489 15.0095C1.96445 14.8361 1.44402 14.6626 0.952507 14.2842C0.631257 14.0319 0.149381 13.1961 0.101193 12.8019V12.5654H8.836C13.6387 12.5528 17.6672 12.5654 17.7876 12.5654C18.1892 12.4077 18.3016 12.0608 18.3016 10.7032C18.3016 9.58362 18.2856 9.42593 18.1089 9.26825C17.9483 9.11056 17.8198 9.04749 17.6913 9.03172C17.5306 9.03172 14.3069 9.03172 10.4423 9.03172H3.4165L2.75794 8.81097C1.85843 8.51137 1.31231 7.99102 1.06655 7.21206C0.841675 6.48672 0.80955 3.49074 1.06655 2.68813C1.33961 1.60011 2.06243 1.05295 3.57391 0.795929C4.76254 0.590941 17.7989 0.590938 18.9458 0.788042C19.8934 0.945726 20.4717 1.19802 21.0162 1.70261C21.5463 2.17566 21.739 2.56986 21.5784 2.85369L21.4178 3.05868H13.2741C5.25887 3.05868 5.12555 3.06184 4.9328 3.2479C4.75611 3.42136 4.74005 3.56327 4.74005 4.66706C4.74005 5.77084 4.75611 5.92852 4.94886 6.14928L5.15768 6.40157L11.5184 6.40315C15.0169 6.40472 18.2936 6.40314 18.8044 6.56083C20.1376 6.71851 20.9375 6.95504 21.4242 7.42809C22.0828 8.07459 22.1791 8.46879 22.1791 10.9192C22.1791 12.731 22.1791 13.0984 22.0025 13.5415C21.6491 14.5349 20.8299 15.0395 19.2365 15.2918C18.6904 15.4494 16.3934 15.4494 11.353 15.4494C4.97135 15.4494 4.11683 15.451 3.15629 15.2918L3.10489 15.0095ZM28.4291 8.05724L28.4243 0.917346L28.9383 0.444292H47.2977L47.9724 0.665048C48.7915 0.933109 49.418 1.46923 49.6653 2.09997C49.826 2.49418 49.842 2.85685 49.842 4.89412C49.842 7.16161 49.834 7.25621 49.6171 7.69615C49.1513 8.61071 48.2518 9.05223 46.4705 9.20991C45.9083 9.20991 42.7006 9.3676 39.3371 9.3676L33.2221 9.37075L33.0133 9.62304C32.8206 9.87533 32.8045 9.95418 32.8366 12.5449V15.2113H28.4002L28.3969 8.06986L28.4291 8.05724ZM44.8369 6.74848C45.4634 6.46464 45.5437 6.22812 45.5437 4.85312C45.5437 3.52858 45.5437 3.32359 44.9815 3.05395C44.6924 2.89627 44.1944 2.8805 38.9805 2.86473H33.296L33.0551 3.10125C32.8141 3.33778 32.8141 3.36932 32.8141 4.86574V6.39526L33.5209 6.99446H39.0014C43.8652 6.99446 44.5205 6.99446 44.8386 6.80524L44.8369 6.74848ZM66.8972 15.123C66.9117 15.123 66.4796 14.445 65.9335 13.7039C65.1143 12.5843 64.8573 12.3163 64.4557 12.1002L63.9738 11.848H57.6677C54.2014 11.848 51.3632 11.848 51.3632 11.848C51.3632 11.848 51.8129 11.2645 52.359 10.6023L53.3549 9.41963H62.0094L62.17 9.13579C62.3307 8.89927 62.3307 8.80467 62.17 8.63121C62.17 8.47353 61.2545 7.25936 60.265 5.84652C59.2852 4.42737 58.4756 3.21794 58.4756 3.14698C58.4756 3.14698 58.9575 2.43741 59.5679 1.71207C60.612 0.450599 60.6601 0.403294 60.8208 0.576746C60.9814 0.734429 63.4149 3.94486 66.3752 7.8428C69.3355 11.7423 71.8236 15.0079 71.9007 15.0994C72.0613 15.2571 71.9055 15.2728 69.4544 15.2728C68.0409 15.2728 66.8796 15.2728 66.894 15.2728L66.8972 15.123ZM81.4997 15.123C81.4836 15.123 81.082 14.9653 80.6323 14.9653C78.9762 14.7604 78.2325 14.3504 77.7956 13.4043L77.5708 12.8997V7.77499C77.5708 3.1186 77.5868 2.60455 77.7475 2.16461C77.9563 1.54965 78.5024 1.0293 79.161 0.777005C80.1408 0.414333 80.9841 0.3828 88.9029 0.414337C97.2474 0.414337 97.0225 0.414338 98.0184 1.0293C98.5163 1.3289 99.0303 2.16462 98.9821 2.59037V2.82689H90.6778C83.8368 2.82689 82.343 2.82689 82.2112 3.00034C82.0506 3.15803 82.0506 3.55223 82.0506 7.5085V11.8858L82.5967 12.3904H98.9323V12.6584C98.9323 13.7465 98.0649 14.5538 96.6273 14.7809C96.2579 14.7809 95.7118 14.9385 95.4227 14.9858C94.9087 15.1435 81.6346 15.1435 81.5479 14.9858L81.4997 15.123ZM105.64 10.3027L105.656 5.44128H119.276V7.77499H110.526L110.334 7.99575C110.157 8.20073 110.141 8.38996 110.141 10.1797C110.141 12.1302 110.142 12.1381 110.382 12.373L110.623 12.6096H118.132C122.263 12.6096 125.715 12.6096 125.802 12.6096C125.962 12.6096 125.962 12.8461 125.962 13.8553L125.948 15.0379H105.675V10.1749L105.64 10.3027ZM105.656 2.87735C105.656 2.87735 105.656 2.23085 105.64 1.61588V0.464796H126.086V3.0508H115.883C107.571 3.0508 105.674 3.0508 105.634 2.89312L105.656 2.87735ZM3.17235 15.0678C1.6946 14.8786 0.820796 14.4371 0.406382 13.6802C0.0208817 12.9864 -0.0273072 12.6237 0.213631 12.4976C0.374256 12.4976 3.12898 12.3399 9.1444 12.3399H17.8792L18.0398 12.1349C18.2486 11.8353 18.2647 9.41332 18.0527 9.13264C17.8921 8.95919 17.6993 8.94343 10.7587 8.89612C3.12577 8.89612 3.08722 8.89612 2.13792 8.34422C1.62392 8.09193 1.36692 7.80811 1.09386 7.22468C0.885045 6.7674 0.868983 6.64125 0.868983 4.58348V2.42164L1.15811 1.85399C1.54361 1.12864 2.08973 0.734434 3.1338 0.49791C3.82449 0.340226 4.48305 0.324455 11.2084 0.324455C17.8455 0.324455 18.586 0.324458 19.1851 0.49791C20.0043 0.702898 20.5665 0.986725 20.9985 1.36517C21.5447 1.86975 21.7535 2.48471 21.4804 2.75278C21.3198 2.91046 19.4373 2.91046 13.2773 2.91046C7.88991 2.91046 5.12876 2.91046 5.00187 3.06814C4.82518 3.22582 4.80912 3.2889 4.80912 4.48729C4.80912 5.71722 4.82518 5.8276 5.01793 5.98528C5.21068 6.15873 5.51587 6.17451 12.4099 6.22181C18.5008 6.22181 19.6718 6.22181 20.0846 6.4268C21.0644 6.7264 21.5945 7.1206 21.9093 7.83018C22.2627 8.58706 22.3751 10.689 22.1824 12.3983C22.0057 13.9278 21.4756 14.5554 19.9705 14.9669C19.2156 15.1719 19.1192 15.1719 11.5008 15.1877C7.26026 15.1971 3.51448 15.1877 3.17556 15.1877L3.17235 15.0678ZM28.4275 7.94371V0.718665L28.7648 0.513677C29.086 0.308688 29.1503 0.308688 37.5735 0.308688C42.858 0.308688 46.3597 0.308684 46.864 0.466368C47.9242 0.624051 48.6695 0.876348 49.1835 1.3494C49.8741 1.96436 49.9223 2.24819 49.8902 5.0928V7.52427L49.6011 7.99732C49.2638 8.53345 48.557 9.0065 47.8133 9.19572C47.476 9.3534 45.4473 9.3534 40.3683 9.36917C33.6735 9.36917 33.3683 9.36917 33.1723 9.6057C32.9796 9.77915 32.9635 9.85799 32.9635 12.5039V15.2192H28.474V7.99417L28.4275 7.94371ZM44.5735 6.72955C44.8145 6.72955 45.1036 6.52456 45.2321 6.38265C45.4409 6.16189 45.457 6.03575 45.4891 5.02657C45.4891 3.65473 45.3285 3.27629 44.8466 3.02715C44.5093 2.86947 43.9631 2.86946 38.8826 2.86946H33.288L33.0952 3.09022C32.9346 3.29521 32.9025 3.48443 32.9025 4.84366V6.37318L33.4165 6.84624H38.7749C42.3424 6.84624 44.2732 6.84623 44.5575 6.68855L44.5735 6.72955ZM65.9479 13.8143C65.2412 12.8366 64.8557 12.3951 64.5344 12.1917L64.1007 11.9236L57.7368 11.9221C53.7227 11.9205 51.3551 11.9221 51.3182 11.7644C51.3182 11.6067 52.8441 9.68927 53.2425 9.34394C53.4191 9.18626 53.7886 9.17049 57.7143 9.17049C61.9644 9.17049 61.9965 9.16891 62.1058 8.9655C62.1058 8.80782 62.2664 8.69744 62.1058 8.60283C62.1058 8.44515 61.2223 7.24675 60.1943 5.7661C59.1663 4.29965 58.3263 3.03819 58.3263 2.97827C58.3263 2.80482 60.4818 0.255071 60.6216 0.255071C60.7822 0.255071 71.6196 14.4576 71.9296 14.9843C71.9296 15.142 71.4638 15.142 69.4303 15.142L66.8635 15.1372L65.8837 13.7969L65.9479 13.8143ZM80.3142 15.0127C78.8044 14.7761 78.0832 14.3188 77.6832 13.3459C77.4744 12.8256 77.4583 12.7152 77.4262 8.18339C77.4262 3.3567 77.4407 2.53044 77.7956 1.85241C78.2293 1.03245 79.1449 0.559402 80.6596 0.417487C81.8643 0.259804 94.8733 0.259801 95.9816 0.420637C96.9775 0.578321 97.7839 0.78331 98.2432 1.13021C98.6127 1.41404 99.0785 2.24977 99.0785 2.64398V2.91203H90.877C82.1743 2.91203 82.2321 2.91046 82.0602 3.35355C82.0602 3.51124 82.0602 5.39397 82.0602 7.6993V11.8874L82.6064 12.392H90.779C99.9764 12.392 99.1765 12.392 98.9564 13.1488C98.6673 14.2526 97.8963 14.7872 96.2579 15.0268C94.8926 15.2318 81.6812 15.2161 80.3737 15.0205L80.3142 15.0127ZM105.637 10.2522V5.34351H119.3V7.78761H114.969C110.733 7.78761 110.631 7.79076 110.378 7.99259L110.121 8.19758V12.2879L110.378 12.4929C110.635 12.6821 110.7 12.6979 118.222 12.6979C125.268 12.6979 125.816 12.7089 125.876 12.8555C125.876 13.0132 125.876 13.5021 125.876 14.1012L125.86 15.1893H105.484V10.279L105.637 10.2522ZM105.656 2.96249C105.656 2.96249 105.656 2.28446 105.64 1.59065V0.344952H126.134V3.02557H115.909C107.561 3.02557 105.675 3.02714 105.635 2.86788L105.656 2.96249ZM2.94105 15.0521C1.41511 14.8471 0.480269 14.2321 0.178293 13.2103C0.0176677 12.7688 0.0176677 12.6269 0.178293 12.5165C0.338918 12.3588 1.51148 12.3588 9.05927 12.3588H17.823L18.0318 12.1066C18.2085 11.8858 18.2406 11.7281 18.2406 10.6401C18.2406 9.58362 18.2406 9.3944 18.0479 9.18941L17.8551 8.96866H10.6495C3.19484 8.96866 3.03742 8.96865 2.23912 8.4956C1.05049 7.89641 0.681051 6.80524 0.793489 4.13093C0.793489 2.40114 1.01836 1.88709 1.6448 1.29105C2.1588 0.802233 2.65674 0.597246 3.74899 0.439563C4.19875 0.439563 6.88922 0.28188 11.7032 0.439563C18.9377 0.439563 18.9715 0.43956 19.6188 0.676085C20.4861 0.959915 21.1447 1.4172 21.4917 1.96909C21.7487 2.37907 21.7647 2.44214 21.6523 2.7102L21.4917 2.99403H13.3785C6.1905 2.99403 5.23799 2.99403 5.04685 3.15171C4.83803 3.3094 4.82197 3.37247 4.82197 4.52356C4.82197 5.42235 4.82197 5.8008 4.9826 5.92694C5.14322 6.10039 5.33597 6.11616 12.2268 6.16347C19.7585 6.16347 19.9497 6.16346 20.8765 6.69959C22.0169 7.26725 22.306 8.10297 22.306 10.7726C22.306 13.3523 22.0169 14.1564 20.8443 14.7414C19.9288 15.1987 19.9288 15.1987 11.5249 15.2303C7.17834 15.2413 3.32816 15.2303 2.96836 15.2303L2.94105 15.0521ZM28.3311 7.98156L28.3279 0.806968L28.9383 0.30238H47.3106L47.9691 0.523135C48.8205 0.806965 49.3826 1.23271 49.6991 1.83191C49.94 2.30496 49.9561 2.32072 49.9561 4.70647C49.9561 7.37762 49.9561 7.59523 49.3457 8.22281C48.9281 8.66432 48.4783 8.91662 47.6463 9.13737C47.1002 9.29506 46.2007 9.29506 40.2013 9.34236C33.4085 9.34236 33.3699 9.34236 33.1515 9.57889C32.9266 9.78387 32.9266 9.79964 32.9266 12.4471V15.1136H28.3455L28.3407 7.93741L28.3311 7.98156ZM44.8353 6.60971C45.0281 6.45203 45.2369 6.35742 45.3012 6.26281C45.3012 6.10512 45.4618 5.53746 45.4618 4.82789C45.4618 3.40874 45.3012 3.17221 44.7068 2.99246C44.482 2.99246 42.3216 2.83477 38.8665 2.83477L33.3844 2.8332L33.1755 3.08549C32.9828 3.32201 32.9667 3.46393 32.9667 4.76955V6.20447L33.545 6.77212H39.0352C43.9085 6.77212 44.5655 6.77212 44.8835 6.5829L44.8353 6.60971ZM65.9319 13.8332C65.2412 12.8871 64.8235 12.4298 64.4862 12.2043L64.0204 11.8889H57.6388C52.5357 11.8889 51.2603 11.889 51.2603 11.7313C51.2603 11.5736 52.5453 9.99517 53.0915 9.43539L53.3485 9.16734H57.6034C60.7838 9.16734 61.8905 9.16733 61.9773 9.00965C62.2503 8.74159 61.9773 8.37892 60.1943 5.70619C58.7166 3.58535 58.3134 2.93727 58.3841 2.81585C58.609 2.42164 60.5654 0.168348 60.6826 0.168348C60.6826 0.168348 63.3265 3.46551 66.3945 7.49589C69.4624 11.5263 72.018 14.8786 72.071 14.9448C72.071 15.1025 71.6212 15.1025 69.5331 15.1025H66.8988L65.9351 13.778L65.9319 13.8332ZM80.356 15.0473C78.594 14.8266 77.7555 14.1485 77.5113 12.7735C77.3507 12.332 77.3507 10.6574 77.3507 7.28933V2.44372L77.6398 1.87606C77.8487 1.46608 78.0575 1.22956 78.4108 0.993031C79.4228 0.314993 79.7601 0.299222 88.2315 0.299222C96.1969 0.302376 96.7093 0.299225 97.6489 0.772275C97.8899 0.929958 98.2432 1.15072 98.436 1.37147C98.8376 1.82876 99.1267 2.64871 98.9661 2.83793C98.8054 2.99561 97.3919 2.99561 90.5911 2.99561C82.7028 2.99561 82.314 3.00349 82.1598 3.16906C81.9992 3.32674 81.9992 3.78403 81.9992 7.66461V11.9851L82.2562 12.1901C82.5132 12.3793 82.5614 12.3951 90.6987 12.3951H98.8825L98.8809 12.7105C98.8809 13.2624 98.6721 13.7512 98.2866 14.1769C97.8047 14.6815 97.1783 14.9338 96.0427 15.0757C95.0789 15.2334 81.1993 15.2334 80.2661 15.0726L80.356 15.0473ZM105.544 10.2412L105.56 5.33247H112.434C117.867 5.33247 119.322 5.33405 119.385 5.49016C119.545 5.66361 119.545 7.55581 119.385 7.77184C119.224 7.94529 119.128 7.96106 114.963 7.96106H110.64L110.431 8.18182C110.223 8.40257 110.223 8.48142 110.223 10.32C110.223 12.2012 110.228 12.2422 110.448 12.4456L110.672 12.6506H118.233C123.985 12.6506 125.823 12.6506 125.913 12.8082C125.913 12.8082 126.073 13.3128 126.073 14.1012V15.2839H105.584V10.3736L105.544 10.2412ZM105.56 2.95461C105.56 2.95461 105.56 2.27658 105.544 1.58277V0.337072H126.134V3.01768H115.859C107.473 3.01768 105.577 3.01926 105.537 2.86L105.56 2.95461ZM2.94105 15.0442C1.41511 14.8392 0.480269 14.2242 0.178293 13.2024C0.0176677 12.7609 0.0176677 12.619 0.178293 12.5086C0.338918 12.351 1.51148 12.351 9.05927 12.351H17.823L18.0318 12.0987C18.2085 11.8779 18.2406 11.7202 18.2406 10.6322C18.2406 9.57573 18.2406 9.38651 18.0479 9.18152L17.8551 8.96077H10.6495C3.19484 8.96077 3.03742 8.96077 2.23912 8.48772C1.05049 7.88852 0.681051 6.79736 0.793489 4.12305C0.793489 2.39326 1.01836 1.87921 1.6448 1.28317C2.1588 0.794353 2.65674 0.589359 3.74899 0.431676C4.19875 0.431676 6.88922 0.273992 11.7032 0.431676C18.9377 0.431676 18.9715 0.431681 19.6188 0.668205C20.4861 0.952035 21.1447 1.40931 21.4917 1.96121C21.7487 2.37118 21.7647 2.43425 21.6523 2.70232L21.4917 2.98615H13.3785C6.1905 2.98615 5.23799 2.98615 5.04685 3.14383C4.83803 3.30152 4.82197 3.36459 4.82197 4.51568C4.82197 5.41447 4.82197 5.79291 4.9826 5.91905C5.14322 6.09251 5.33597 6.10828 12.2268 6.15558C19.7585 6.15558 19.9497 6.15558 20.8765 6.69171C22.0169 7.25937 22.306 8.09509 22.306 10.7647C22.306 13.3444 22.0169 14.1485 20.8443 14.7336C19.9288 15.1908 19.9288 15.1908 11.5249 15.2224C7.17834 15.2334 3.32816 15.2224 2.96836 15.2224L2.94105 15.0442ZM28.3311 7.97367L28.3279 0.79908L28.9383 0.294492H47.3106L47.9691 0.515248C48.8205 0.799078 49.3826 1.22483 49.6991 1.82402C49.94 2.29707 49.9561 2.31284 49.9561 4.69859C49.9561 7.36974 49.9561 7.58735 49.3457 8.21493C48.9281 8.65644 48.4783 8.90874 47.6463 9.12949C47.1002 9.28718 46.2007 9.28718 40.2013 9.33448C33.4085 9.33448 33.3699 9.33448 33.1515 9.571C32.9266 9.77599 32.9266 9.79176 32.9266 12.4393V15.1057H28.3455L28.3407 7.92952L28.3311 7.97367ZM44.8353 6.60183C45.0281 6.44414 45.2369 6.34954 45.3012 6.25493C45.3012 6.09724 45.4618 5.52958 45.4618 4.82001C45.4618 3.40086 45.3012 3.16433 44.7068 2.98457C44.482 2.98457 42.3216 2.82689 38.8665 2.82689L33.3844 2.82531L33.1755 3.07761C32.9828 3.31413 32.9667 3.45604 32.9667 4.76166V6.19658L33.545 6.76424H39.0352C43.9085 6.76424 44.5655 6.76424 44.8835 6.57502L44.8353 6.60183ZM65.9319 13.8253C65.2412 12.8792 64.8235 12.4219 64.4862 12.1964L64.0204 11.8811H57.6388C52.5357 11.8811 51.2603 11.8811 51.2603 11.7234C51.2603 11.5657 52.5453 9.98729 53.0915 9.42751L53.3485 9.15945H57.6034C60.7838 9.15945 61.8905 9.15945 61.9773 9.00177C62.2503 8.73371 61.9773 8.37103 60.1943 5.6983C58.7166 3.57746 58.3134 2.92938 58.3841 2.80796C58.609 2.41376 60.5654 0.160461 60.6826 0.160461C60.6826 0.160461 63.3265 3.45762 66.3945 7.48801C69.4624 11.5184 72.018 14.8707 72.071 14.937C72.071 15.0947 71.6212 15.0946 69.5331 15.0946H66.8988L65.9351 13.7701L65.9319 13.8253ZM80.356 15.0395C78.594 14.8187 77.7555 14.1407 77.5113 12.7657C77.3507 12.3242 77.3507 10.6496 77.3507 7.28144V2.43584L77.6398 1.86817C77.8487 1.4582 78.0575 1.22168 78.4108 0.985151C79.4228 0.307113 79.7601 0.291342 88.2315 0.291342C96.1969 0.294496 96.7093 0.291338 97.6489 0.764388C97.8899 0.922071 98.2432 1.14283 98.436 1.36359C98.8376 1.82087 99.1267 2.64082 98.9661 2.83004C98.8054 2.98772 97.3919 2.98773 90.5911 2.98773C82.7028 2.98773 82.314 2.99561 82.1598 3.16118C81.9992 3.31886 81.9992 3.77615 81.9992 7.65673V11.9772L82.2562 12.1822C82.5132 12.3715 82.5614 12.3872 90.6987 12.3872H98.8825L98.8809 12.7026C98.8809 13.2545 98.6721 13.7433 98.2866 14.169C97.8047 14.6736 97.1783 14.9259 96.0427 15.0678C95.0789 15.2255 81.1993 15.2255 80.2661 15.0647L80.356 15.0395ZM105.544 10.2333L105.56 5.32459H112.434C117.867 5.32459 119.322 5.32617 119.385 5.48227C119.545 5.65572 119.545 7.54793 119.385 7.76395C119.224 7.9374 119.128 7.95317 114.963 7.95317H110.64L110.431 8.17393C110.223 8.39468 110.223 8.47353 110.223 10.3121C110.223 12.1933 110.228 12.2343 110.448 12.4377L110.672 12.6427H118.233C123.985 12.6427 125.823 12.6427 125.913 12.8004C125.913 12.8004 126.073 13.3049 126.073 14.0934V15.276H105.584V10.3657L105.544 10.2333ZM105.56 2.94673C105.56 2.94673 105.56 2.26869 105.544 1.57488V0.329185H126.134V3.0098H115.859C107.473 3.0098 105.577 3.01138 105.537 2.85212L105.56 2.94673ZM2.86074 15.0458C1.25127 14.8408 0.407989 14.2258 0.118863 13.0905C-0.041762 12.649 -0.0417622 12.6174 0.279488 12.444C0.488301 12.2705 0.905927 12.2705 9.21989 12.2705C17.7411 12.2705 17.9418 12.2658 18.0398 12.0813C18.0398 11.9236 18.2005 11.2929 18.2005 10.5518C18.2005 9.3534 18.1844 9.19572 18.0238 9.11688C17.8631 9.11688 15.094 8.95919 10.8278 8.95919C3.04064 8.95919 2.98281 8.95919 2.0287 8.28116C1.03282 7.61889 0.872195 7.13007 0.872195 4.57717C0.872195 2.316 1.03282 1.84137 1.59501 1.23271C2.04476 0.791198 2.47845 0.586211 3.38759 0.381223C4.01403 0.22354 4.92959 0.223537 11.2647 0.223537C17.9049 0.220383 18.4928 0.233 19.2156 0.39699C20.1794 0.617747 20.8058 0.948879 21.3166 1.485C21.7503 1.95805 21.8788 2.28919 21.7181 2.63609L21.5575 2.87262H13.5102C8.51957 2.87262 5.3697 2.87261 5.2139 3.0303L4.9569 3.18799V4.51252C4.9569 5.67938 4.9569 5.8686 5.13358 5.99475C5.29421 6.15243 5.90459 6.15243 11.9569 6.15243C16.1701 6.15243 18.8783 6.15243 19.3586 6.31011C20.8203 6.5151 21.633 6.98815 22.0699 7.92321C22.2466 8.31742 22.2787 8.56972 22.3109 10.4398C22.3269 11.7644 22.3028 12.7089 22.3109 13.0495C22.0378 14.311 21.0901 15.03 19.4308 15.2098C18.4189 15.3674 3.82128 15.3674 2.98763 15.2113L2.86074 15.0458ZM28.3295 7.96106V0.780163L28.5544 0.575174C28.715 0.417491 28.8756 0.338647 29.0041 0.291342C29.2932 0.133659 44.5559 0.133658 46.2183 0.296072C48.2181 0.453755 49.1915 0.863732 49.7408 1.87448C49.9336 2.23715 49.9496 2.4106 49.9818 4.58978C49.9818 7.19156 49.9818 7.63939 49.4196 8.27012C49.259 8.45934 48.8895 8.74317 48.6004 8.86932C47.5724 9.35813 47.1066 9.38967 40.0021 9.38967C34.2437 9.39283 33.4358 9.38967 33.2446 9.54735C33.0358 9.70503 33.0197 9.7208 33.0197 12.2705C33.0197 13.6897 33.0197 14.9117 33.0197 14.9937C33.0197 15.1514 32.6664 15.1514 30.6762 15.1514H28.3953V7.97052L28.3295 7.96106ZM44.6442 6.60498C45.2867 6.43153 45.3991 6.17923 45.3991 4.87835C45.3991 3.56957 45.3991 3.33305 44.8851 3.09338C44.596 2.93569 44.1463 2.91992 39.0175 2.88839C34.1088 2.88839 33.4422 2.87734 33.235 3.04607C33.0101 3.20375 33.0101 3.21952 33.0101 4.77428C33.0101 6.22496 33.0262 6.36845 33.2029 6.54506C33.3956 6.73428 33.5241 6.73428 38.8392 6.73428C42.2669 6.73428 44.4113 6.73428 44.6394 6.5766L44.6442 6.60498ZM66.2146 14.2495C65.8451 13.7606 65.3954 13.1457 65.2026 12.8776C64.9777 12.578 64.6565 12.2942 64.3674 12.1365L63.8855 11.8842H57.5199C51.8193 11.8842 51.1624 11.8684 51.2138 11.7265C51.2138 11.5688 51.7117 11.0485 52.2578 10.3862L53.2537 9.18783H57.5263C61.2834 9.18783 61.8199 9.18783 61.9548 9.03015C62.1154 8.87246 62.1154 8.80939 62.1154 8.71478C62.1154 8.5571 61.2802 7.34294 60.2489 5.87175C59.2209 4.4053 58.3632 3.12807 58.3423 3.04922C58.3423 2.84424 60.5397 0.158885 60.7308 0.195153C60.8914 0.195153 72.1673 14.9575 72.1673 15.0868C72.1673 15.0868 70.9787 15.0868 69.5315 15.0868H66.8972L66.2387 14.2037L66.2146 14.2495ZM80.2918 15.0379C78.9746 14.8802 78.1314 14.3914 77.6945 13.5241L77.4696 13.0668V7.90902C77.4696 2.05739 77.4696 2.03374 78.1442 1.2879C78.5939 0.814851 79.1883 0.53102 80.1392 0.357569C81.1029 0.168349 95.5303 0.168345 96.531 0.354411C97.9605 0.606704 98.807 1.23744 99.1203 2.2608C99.3451 3.01768 100.1 2.95461 90.8481 2.95461C83.5155 2.95461 82.5453 2.95461 82.3526 3.11229L82.1438 3.26998V11.848L82.5935 12.2579H90.6939C97.2377 12.2579 98.8279 12.2579 98.9693 12.4156C99.1299 12.5733 99.1299 12.5891 98.9693 13.0779C98.7765 14.024 98.2143 14.5759 97.1092 14.9338C96.6113 15.0915 96.0009 15.1073 88.7182 15.123C84.3973 15.1325 80.5969 15.1104 80.2757 15.123L80.2918 15.0379ZM105.516 10.2459C105.516 5.51697 105.523 5.36086 105.709 5.26468C105.998 5.10699 119.094 5.10699 119.312 5.26468C119.473 5.42236 119.473 5.53273 119.473 6.57344V7.77184H115.062C110.995 7.77184 110.637 7.77184 110.476 7.99259C110.316 8.15028 110.3 8.37103 110.3 10.1213C110.3 11.8716 110.316 12.0955 110.476 12.2485C110.637 12.4061 111.119 12.4219 118.331 12.4692H126.014V15.0237H105.513V10.1402L105.516 10.2459ZM105.634 3.04449C105.473 2.88681 105.473 2.52413 105.473 1.65688C105.473 0.505789 105.489 0.379644 105.666 0.285034C105.875 0.12735 125.729 0.12735 126.012 0.285034C126.237 0.442717 126.237 3.05237 126.012 3.1391C126.012 3.1391 121.323 3.1391 115.784 3.1391C108.08 3.1391 105.683 3.1391 105.593 2.98142L105.634 3.04449ZM2.55555 15.0442C1.76848 14.8865 0.901107 14.5711 0.562188 14.1296C0.401563 13.9562 0.240938 13.562 0.160625 13.2624C-1.49834e-07 12.8209 -1.49834e-07 12.6789 0.160625 12.4897C0.160625 12.332 0.353376 12.2374 0.449751 12.2217C0.610376 12.2217 4.44771 12.2059 9.1444 12.2264C16.6809 12.2264 17.7057 12.2264 17.8776 12.0687C18.0543 11.911 18.0703 11.8164 18.0703 10.5707C18.0703 9.46693 18.0703 9.19887 17.9097 9.13579C17.9097 9.13579 15.3188 8.97812 11.6164 8.97812C8.23526 8.97654 4.97938 8.97811 4.38346 8.82043C2.84146 8.66274 2.09616 8.44199 1.51148 7.87433C0.85292 7.22783 0.724421 6.75478 0.66017 4.89885C0.499545 1.59854 1.10992 0.609858 3.29282 0.166768C4.38507 -0.0539883 17.876 -0.053986 19.0405 0.15731C20.0525 0.34653 20.7287 0.693435 21.27 1.27686C21.784 1.84452 21.8964 2.15989 21.7037 2.50679L21.5431 2.75908H13.3207C6.15356 2.75908 5.08861 2.75909 5.0083 2.94831C5.0083 2.94831 4.84767 3.59481 4.84767 4.20977C4.84607 5.12433 4.84767 5.36086 5.02436 5.51854C5.20105 5.72353 5.23317 5.72353 12.2702 5.75507C18.6406 5.75507 19.4019 5.75507 19.9224 5.96006C21.2716 6.3385 21.8916 6.92192 22.1824 8.0399C22.4072 8.90715 22.343 12.4724 22.0217 13.1551C21.7808 13.7859 21.1704 14.3693 20.4476 14.6531L19.8693 14.8739L11.4783 14.8897C6.86191 14.8975 2.79488 14.8739 2.4399 14.8897L2.55555 15.0442ZM28.2974 15.0442C28.2974 15.0442 28.2974 11.7738 28.2974 7.85383V0.728124L28.9399 0.160461L37.9204 0.162039C47.5001 0.163616 47.6158 0.169926 48.6245 0.635092C49.2027 0.903154 49.6525 1.34467 49.9095 1.88079C50.1022 2.29077 50.1183 2.47998 50.1183 4.80266V7.29248L49.8613 7.76553C49.4437 8.53818 48.9297 8.88508 47.778 9.21622C47.2479 9.3739 46.5091 9.38967 40.3137 9.42121C33.4791 9.42121 33.4325 9.4212 33.2623 9.65773C33.1017 9.83118 33.0856 10.115 33.0856 12.4818V15.1057H30.7581C29.4731 15.1057 28.405 15.1057 28.3696 15.1057L28.2974 15.0442ZM44.7663 6.4473C44.943 6.4473 45.1518 6.22654 45.2 6.11616C45.2 5.95848 45.3606 5.40658 45.3606 4.71278C45.3606 3.3567 45.3606 3.23056 44.6056 3.03661C44.3647 3.03661 42.3376 2.87892 38.844 2.87892C33.5819 2.87892 33.447 2.88365 33.2559 3.06814C33.0792 3.24159 33.0631 3.38351 33.0631 4.62921C33.0631 5.8749 33.0631 6.03259 33.2719 6.25808L33.4807 6.51037H38.9902C43.5198 6.51037 44.5575 6.51037 44.8289 6.35269L44.7663 6.4473ZM66.7527 14.989C66.7527 14.989 66.2065 14.3425 65.7247 13.6802C65.2428 13.0337 64.6806 12.3872 64.4718 12.2453L64.0863 11.993H57.5954C51.6764 11.993 51.1078 11.993 51.119 11.788C51.1254 11.6303 51.6009 11.0627 52.1791 10.3689L53.2232 9.10742H61.9451L61.9435 8.82359C61.9435 8.60283 61.4617 7.86172 60.0562 5.82602C59.0121 4.3438 58.1913 3.06183 58.217 2.99561C58.3777 2.71178 60.5509 0.154159 60.6842 0.154159C60.8449 0.154159 72.1416 14.9102 72.1416 15.0978C72.1416 15.2555 66.9518 15.2555 66.7495 15.0978L66.7527 14.989ZM79.993 14.989C78.8204 14.8313 78.0318 14.3425 77.59 13.409C77.3652 12.936 77.3652 12.9202 77.333 7.90113C77.333 1.95805 77.333 1.96751 78.1522 1.13179C78.5699 0.721816 78.7787 0.59567 79.373 0.40645L80.0958 0.185694H96.4908L97.1815 0.40645C97.567 0.564133 98.0489 0.737587 98.2577 0.89527C98.8841 1.33678 99.4463 2.56198 99.1733 2.88208C99.0126 3.03976 97.9204 3.03976 90.8159 3.03976C85.3209 3.03976 82.51 3.03976 82.3847 3.19744C82.208 3.35513 82.192 3.44974 82.192 7.58735V11.8779L82.6417 12.2879H90.8481C100.045 12.2879 99.2536 12.2879 99.0705 13.0132C98.7813 14.3062 98.0103 14.9039 96.4539 15.0647C95.458 15.2224 80.9905 15.2224 79.9898 15.0584L79.993 14.989ZM105.484 14.989C105.484 14.989 105.484 5.45074 105.478 5.24102C105.478 5.08334 106.233 5.08333 112.496 5.08333C118.747 5.08333 119.455 5.09911 119.508 5.24102C119.669 5.49331 119.508 7.48643 119.508 7.68354C119.348 7.85699 119.251 7.87276 115.07 7.87276C110.862 7.87276 110.725 7.87906 110.536 8.06197C110.359 8.23542 110.343 8.37734 110.343 10.1213C110.343 11.8621 110.358 12.0025 110.536 12.1807C110.729 12.3699 110.857 12.3699 118.329 12.3699C124.701 12.3699 125.95 12.3699 126.043 12.5276C126.043 12.6852 126.203 13.0479 126.043 13.8521V15.0347H115.788C110.15 15.0473 105.505 15.03 105.468 15.0347L105.484 14.989ZM105.478 2.92623C105.317 2.70547 105.478 0.367032 105.494 0.226694C105.494 0.0690111 107.704 0.0690074 115.91 0.0690074H126.248V2.93885H115.89C106.507 2.93885 105.526 2.9483 105.473 2.78116L105.478 2.92623Z" fill="white"/>
<path d="M162 0C157.112 2.09861 146.844 5 136.862 25C140.605 11.25 149.729 1.25 152.224 0H162Z" fill="white"/>
<path d="M141.61 0H133.231L143.705 7.02247L145.8 4.21348L141.61 0Z" fill="white"/>
</svg>
