<svg width="1440" height="1253" viewBox="0 0 1440 1253" fill="none" xmlns="http://www.w3.org/2000/svg">
<ellipse cx="3.66781" cy="1009.88" rx="0.540611" ry="0.383456" fill="#C4C4C4"/>
<ellipse cx="39.3482" cy="874.736" rx="0.540611" ry="0.383456" fill="#C4C4C4"/>
<ellipse cx="71.7849" cy="721.929" rx="0.540611" ry="0.383456" fill="#C4C4C4"/>
<ellipse cx="25.8329" cy="1126.98" rx="1.08122" ry="0.767878" fill="#C4C4C4"/>
<ellipse cx="197.207" cy="901.612" rx="0.540611" ry="0.383456" fill="#C4C4C4"/>
<ellipse cx="245.321" cy="1184.58" rx="1.08122" ry="0.767878" fill="#C4C4C4"/>
<ellipse cx="158.823" cy="1150.02" rx="1.08122" ry="0.767878" fill="#C4C4C4"/>
<ellipse cx="148.011" cy="1120.07" rx="1.08122" ry="0.767878" fill="#C4C4C4"/>
<ellipse cx="257.755" cy="800.252" rx="0.540611" ry="0.383456" fill="#C4C4C4"/>
<ellipse cx="12.3177" cy="811.002" rx="0.540611" ry="0.383456" fill="#C4C4C4"/>
<ellipse cx="200.45" cy="873.2" rx="0.540611" ry="0.383456" fill="#C4C4C4"/>
<ellipse cx="73.9473" cy="782.591" rx="0.540611" ry="0.383456" fill="#C4C4C4"/>
<ellipse cx="100.978" cy="838.646" rx="0.540611" ry="0.383456" fill="#C4C4C4"/>
<ellipse cx="1141.65" cy="907.372" rx="1.08122" ry="0.767878" fill="#C4C4C4"/>
<ellipse cx="1130.84" cy="877.424" rx="1.08122" ry="0.767878" fill="#C4C4C4"/>
<ellipse cx="210.722" cy="783.743" rx="1.08122" ry="0.767878" fill="#C4C4C4"/>
<ellipse cx="713.49" cy="621.721" rx="1.08122" ry="0.767878" fill="#C4C4C4"/>
<ellipse cx="247.483" cy="860.531" rx="1.08122" ry="0.767878" fill="#C4C4C4"/>
<ellipse cx="212.884" cy="847.477" rx="1.08122" ry="0.767878" fill="#C4C4C4"/>
<ellipse cx="821.612" cy="591.773" rx="1.08122" ry="0.767878" fill="#C4C4C4"/>
<ellipse cx="109.087" cy="832.887" rx="1.08122" ry="0.767878" fill="#C4C4C4"/>
<ellipse cx="628.073" cy="749.957" rx="1.08122" ry="0.767878" fill="#C4C4C4"/>
<ellipse cx="1208.15" cy="1022.17" rx="0.540611" ry="0.383456" fill="#C4C4C4"/>
<ellipse cx="730.249" cy="598.301" rx="0.540611" ry="0.383456" fill="#C4C4C4"/>
<ellipse cx="1191.93" cy="1161.92" rx="0.540611" ry="0.383456" fill="#C4C4C4"/>
<ellipse cx="1371.95" cy="1189.95" rx="1.08122" ry="0.767878" fill="#C4C4C4"/>
<ellipse cx="842.695" cy="629.783" rx="0.540611" ry="0.383456" fill="#C4C4C4"/>
<ellipse cx="1270.86" cy="1093.58" rx="0.540611" ry="0.383456" fill="#C4C4C4"/>
<ellipse cx="1363.84" cy="1073.62" rx="0.540611" ry="0.383456" fill="#C4C4C4"/>
<ellipse cx="1252.48" cy="623.641" rx="0.540611" ry="0.383456" fill="#C4C4C4"/>
<ellipse cx="1306" cy="1121.61" rx="1.08122" ry="0.767878" fill="#C4C4C4"/>
<ellipse cx="1218.96" cy="1086.67" rx="0.540611" ry="0.383456" fill="#C4C4C4"/>
<ellipse cx="84.7595" cy="963.042" rx="0.540611" ry="0.383456" fill="#C4C4C4"/>
<ellipse cx="1200.58" cy="860.146" rx="0.540611" ry="0.383456" fill="#C4C4C4"/>
<ellipse cx="597.258" cy="681.999" rx="0.540611" ry="0.383456" fill="#C4C4C4"/>
<ellipse cx="1202.74" cy="992.99" rx="0.540611" ry="0.383456" fill="#C4C4C4"/>
<ellipse cx="652.401" cy="652.82" rx="0.540611" ry="0.383456" fill="#C4C4C4"/>
<ellipse cx="644.832" cy="602.14" rx="0.540611" ry="0.383456" fill="#C4C4C4"/>
<ellipse cx="324.25" cy="911.979" rx="1.08122" ry="0.767878" fill="#C4C4C4"/>
<ellipse cx="200.45" cy="995.294" rx="0.540611" ry="0.383456" fill="#C4C4C4"/>
<ellipse cx="610.233" cy="605.979" rx="0.540611" ry="0.383456" fill="#C4C4C4"/>
<ellipse cx="575.634" cy="592.925" rx="0.540611" ry="0.383456" fill="#C4C4C4"/>
<ellipse cx="235.049" cy="1022.94" rx="0.540611" ry="0.383456" fill="#C4C4C4"/>
<ellipse cx="345.334" cy="623.641" rx="0.540611" ry="0.383456" fill="#C4C4C4"/>
<ellipse cx="334.522" cy="593.693" rx="0.540611" ry="0.383456" fill="#C4C4C4"/>
<ellipse cx="235.049" cy="608.283" rx="0.540611" ry="0.383456" fill="#C4C4C4"/>
<ellipse cx="330.197" cy="618.265" rx="0.540611" ry="0.383456" fill="#C4C4C4"/>
<ellipse cx="1406.55" cy="600.221" rx="1.08122" ry="0.767878" fill="#C4C4C4"/>
<ellipse cx="1190.85" cy="820.985" rx="0.540611" ry="0.383456" fill="#C4C4C4"/>
<ellipse cx="130.712" cy="15.8652" rx="1.08122" ry="0.767878" fill="#C4C4C4"/>
<ellipse cx="56.6477" cy="172.895" rx="0.540611" ry="0.383456" fill="#C4C4C4"/>
<ellipse cx="183.151" cy="202.075" rx="0.540611" ry="0.383456" fill="#C4C4C4"/>
<ellipse cx="276.136" cy="182.11" rx="0.540611" ry="0.383456" fill="#C4C4C4"/>
<ellipse cx="218.29" cy="230.104" rx="1.08122" ry="0.767878" fill="#C4C4C4"/>
<ellipse cx="131.252" cy="195.164" rx="0.540611" ry="0.383456" fill="#C4C4C4"/>
<ellipse cx="191.8" cy="101.483" rx="0.540611" ry="0.383456" fill="#C4C4C4"/>
<ellipse cx="58.8101" cy="76.9113" rx="0.540611" ry="0.383456" fill="#C4C4C4"/>
<ellipse cx="51.2415" cy="26.2314" rx="0.540611" ry="0.383456" fill="#C4C4C4"/>
<ellipse cx="1408.17" cy="765.698" rx="0.540611" ry="0.383456" fill="#C4C4C4"/>
<ellipse cx="1268.16" cy="678.544" rx="1.08122" ry="0.767878" fill="#C4C4C4"/>
<ellipse cx="239.374" cy="1050.58" rx="0.540611" ry="0.383456" fill="#C4C4C4"/>
<ellipse cx="257.755" cy="732.678" rx="0.540611" ry="0.383456" fill="#C4C4C4"/>
<ellipse cx="300.463" cy="717.706" rx="1.08122" ry="0.767878" fill="#C4C4C4"/>
<ellipse cx="265.323" cy="704.268" rx="0.540611" ry="0.383456" fill="#C4C4C4"/>
<ellipse cx="483.189" cy="699.276" rx="1.08122" ry="0.767878" fill="#C4C4C4"/>
<ellipse cx="602.124" cy="628.632" rx="1.08122" ry="0.767878" fill="#C4C4C4"/>
<ellipse cx="49.6198" cy="591.006" rx="1.08122" ry="0.767878" fill="#C4C4C4"/>
<ellipse cx="22.5894" cy="256.979" rx="1.08122" ry="0.767878" fill="#C4C4C4"/>
<ellipse cx="11.7771" cy="227.032" rx="1.08122" ry="0.767878" fill="#C4C4C4"/>
<ellipse cx="10.1554" cy="521.512" rx="0.540611" ry="0.383456" fill="#C4C4C4"/>
<ellipse cx="103.14" cy="588.318" rx="0.540611" ry="0.383456" fill="#C4C4C4"/>
<ellipse cx="229.643" cy="530.727" rx="0.540611" ry="0.383456" fill="#C4C4C4"/>
<ellipse cx="138.28" cy="616.346" rx="1.08122" ry="0.767878" fill="#C4C4C4"/>
<ellipse cx="51.2415" cy="581.407" rx="0.540611" ry="0.383456" fill="#C4C4C4"/>
<ellipse cx="71.7849" cy="239.702" rx="0.540611" ry="0.383456" fill="#C4C4C4"/>
<ellipse cx="1180.04" cy="439.349" rx="0.540611" ry="0.383456" fill="#C4C4C4"/>
<ellipse cx="1138.41" cy="467.378" rx="1.08122" ry="0.767878" fill="#C4C4C4"/>
<ellipse cx="1128.14" cy="432.439" rx="0.540611" ry="0.383456" fill="#C4C4C4"/>
<ellipse cx="1055.7" cy="314.186" rx="0.540611" ry="0.383456" fill="#C4C4C4"/>
<ellipse cx="952.98" cy="312.65" rx="0.540611" ry="0.383456" fill="#C4C4C4"/>
<ellipse cx="942.168" cy="282.703" rx="0.540611" ry="0.383456" fill="#C4C4C4"/>
<ellipse cx="937.843" cy="307.275" rx="0.540611" ry="0.383456" fill="#C4C4C4"/>
<ellipse cx="840.533" cy="388.669" rx="0.540611" ry="0.383456" fill="#C4C4C4"/>
<ellipse cx="842.695" cy="449.332" rx="0.540611" ry="0.383456" fill="#C4C4C4"/>
<ellipse cx="1019.48" cy="494.253" rx="1.08122" ry="0.767878" fill="#C4C4C4"/>
<ellipse cx="1008.66" cy="464.306" rx="1.08122" ry="0.767878" fill="#C4C4C4"/>
<ellipse cx="1068.67" cy="476.975" rx="0.540611" ry="0.383456" fill="#C4C4C4"/>
<ellipse cx="155.039" cy="420.152" rx="0.540611" ry="0.383456" fill="#C4C4C4"/>
<ellipse cx="22.0488" cy="395.581" rx="0.540611" ry="0.383456" fill="#C4C4C4"/>
<ellipse cx="14.4801" cy="344.901" rx="0.540611" ry="0.383456" fill="#C4C4C4"/>
<ellipse cx="554.009" cy="351.043" rx="0.540611" ry="0.383456" fill="#C4C4C4"/>
<ellipse cx="752.954" cy="568.353" rx="0.540611" ry="0.383456" fill="#C4C4C4"/>
<ellipse cx="845.939" cy="635.158" rx="0.540611" ry="0.383456" fill="#C4C4C4"/>
<ellipse cx="1286" cy="577.568" rx="0.540611" ry="0.383456" fill="#C4C4C4"/>
<ellipse cx="897.838" cy="466.993" rx="0.540611" ry="0.383456" fill="#C4C4C4"/>
<ellipse cx="764.848" cy="442.421" rx="0.540611" ry="0.383456" fill="#C4C4C4"/>
<ellipse cx="757.279" cy="391.741" rx="0.540611" ry="0.383456" fill="#C4C4C4"/>
<ellipse cx="662.132" cy="440.885" rx="0.540611" ry="0.383456" fill="#C4C4C4"/>
<ellipse cx="646.994" cy="435.51" rx="0.540611" ry="0.383456" fill="#C4C4C4"/>
<ellipse cx="448.05" cy="410.17" rx="0.540611" ry="0.383456" fill="#C4C4C4"/>
<ellipse cx="673.484" cy="550.309" rx="1.08122" ry="0.767878" fill="#C4C4C4"/>
<ellipse cx="1266.53" cy="702.732" rx="0.540611" ry="0.383456" fill="#C4C4C4"/>
<ellipse cx="1268.7" cy="763.394" rx="0.540611" ry="0.383456" fill="#C4C4C4"/>
<ellipse cx="1405.47" cy="764.547" rx="1.08122" ry="0.767878" fill="#C4C4C4"/>
<ellipse cx="1126.52" cy="726.921" rx="1.08122" ry="0.767878" fill="#C4C4C4"/>
<ellipse cx="1168.68" cy="711.562" rx="1.08122" ry="0.767878" fill="#C4C4C4"/>
<ellipse cx="496.164" cy="88.814" rx="1.08122" ry="0.767878" fill="#C4C4C4"/>
<ellipse cx="485.352" cy="58.8666" rx="1.08122" ry="0.767878" fill="#C4C4C4"/>
<ellipse cx="641.589" cy="255.059" rx="0.540611" ry="0.383456" fill="#C4C4C4"/>
<ellipse cx="555.091" cy="41.5885" rx="0.540611" ry="0.383456" fill="#C4C4C4"/>
<ellipse cx="557.253" cy="174.432" rx="0.540611" ry="0.383456" fill="#C4C4C4"/>
<ellipse cx="545.36" cy="2.42691" rx="0.540611" ry="0.383456" fill="#C4C4C4"/>
<ellipse cx="701.596" cy="82.6701" rx="1.08122" ry="0.767878" fill="#C4C4C4"/>
<ellipse cx="787.013" cy="200.156" rx="1.08122" ry="0.767878" fill="#C4C4C4"/>
<ellipse cx="1131.92" cy="638.615" rx="1.08122" ry="0.767878" fill="#C4C4C4"/>
<ellipse cx="1418.99" cy="875.504" rx="0.540611" ry="0.383456" fill="#C4C4C4"/>
<ellipse cx="1275.72" cy="600.221" rx="1.08122" ry="0.767878" fill="#C4C4C4"/>
<ellipse cx="1374.66" cy="821.752" rx="0.540611" ry="0.383456" fill="#C4C4C4"/>
<ellipse cx="1223.83" cy="593.309" rx="1.08122" ry="0.767878" fill="#C4C4C4"/>
<ellipse cx="1042.72" cy="159.073" rx="0.540611" ry="0.383456" fill="#C4C4C4"/>
<ellipse cx="1078.4" cy="23.9272" rx="0.540611" ry="0.383456" fill="#C4C4C4"/>
<ellipse cx="951.358" cy="16.633" rx="1.08122" ry="0.767878" fill="#C4C4C4"/>
<ellipse cx="992.445" cy="91.1174" rx="1.08122" ry="0.767878" fill="#C4C4C4"/>
<ellipse cx="1286.54" cy="9.7221" rx="1.08122" ry="0.767878" fill="#C4C4C4"/>
<ellipse cx="1274.1" cy="172.128" rx="0.540611" ry="0.383456" fill="#C4C4C4"/>
</svg>
